<?xml version="1.0" encoding="UTF-8"?>
<svg id="Layer_2" data-name="Layer 2" xmlns="http://www.w3.org/2000/svg" viewBox="0 0 825.68 714.93">
  <g id="Layer_1-2" data-name="Layer 1">
    <path d="M292.99,330.53c29.96,21.02,65.86,35.96,101.32,21.06,21.21-8.51,38.76-22.58,57.8-36.16,26.1-19.12,55.41-37.19,88.27-42.84,12.45-2.27,25.14-2.92,37.74-2.12,4.41.3,7.76.64,11.44.72,27.84,1.23,56.88-10.32,68.37-36.65,8.33-18.33,6.34-41-5.38-57.42-14.09-20.28-39.78-28.22-64.12-27.64-2.97.09-8.24.31-11.33.58-8.49.54-17.08.22-25.55-.9-49.94-6.32-87.95-42.19-127.1-69.57-24.23-17.02-51.31-30.65-81.1-29.15-27.97.88-55.3,16.26-68.16,41.52-24.14,46.89-.95,103.45,50.27,117.86,4.68,1.36,9.6,2.49,14.43,3.26,8.21,1.25,15.95-.47,23.83-4.34,6.02-2.96,11.87-7.09,17.46-11.78,46.82-41.64,76.86-101.74,130.92-137.21,21.62-14.16,48.62-23.01,74.67-18.79,27.41,5.03,50.62,25.68,59.15,52.3,2.6,10.36,3.51,21.63,1.68,32.67-3.38,21.44-16.81,39.5-31.3,54.2-13.44,13.76-28.27,25.84-41.26,39.46-14.84,15.32-27.16,34.03-26.64,55.73.39,18.54,9.14,40.4,29.2,43.11,13.98,2.24,30.11-6.2,35.29-19.49,11.52-31.42-27.41-62.67-50.98-77.95-76.94-38.24-186.45-85.75-278-70.44-27.92,5.02-59.29,19.86-66.82,49.32-7.18,29.57,14.87,55.37,41.42,65.41,14.11,5.6,29.43,7.77,44.73,7.36,19.45-.48,39.56-4.71,58.65-10.13,11.98-3.62,24.99-7.33,37.37-9.36,26.59-4.47,55.43-4.43,79.85,9.02,26.5,14.25,39.89,44.25,36.02,73.59-4.7,42.47-40.41,77.31-82.14,83.47-19.59,3.4-42.33-.98-55.53-17.13-17.07-21.06-8.3-50.17,5.71-70.19,14.61-21.34,35.1-36.62,51.86-55.62,16.16-18.08,30.45-38.49,44.51-58.55l14.35-20.35c14.19-20.7,29.21-39.3,40.24-61.37,10.57-19.76,11.65-43.6,5.2-64.95-7.29-24.6-26.25-45.77-51.96-49.86-10.87-1.59-22.18-.55-32.77,2.08-81.54,22.43-111.3,153.53-83.29,224.67,16.45,43.57,65.06,62.5,102.39,86.09,17.99,11.09,37.16,24.31,50.53,41.98,14.14,18.33,22.88,41.5,20.81,64.9-3.96,46.79-44.7,82.06-87.58,94.64-33.96,10.68-71.58,6.13-104.1-6.74-67.79-25.85-125.26-84.87-202.78-69.28-58.19,11.91-115.09,69.54-131.51,125.9-3.73,13.61-5.26,29.91,2.51,41.66,8.25,11.81,21.83,14.27,34.78,8.81,25.51-10.67,50-42.68,57.92-68.93,1.2-4.51,3.85-15.75-1.73-17.49-3.82-1.06-7.48-.21-11.13,2.12-5.55,3.69-10.13,9.98-13.62,16.02-16.16,28.12-27.79,83.42-25.57,115.58,1.2,8.7,3.66,17.08,14.29,13.72,3-.87,6.18-2.43,9.21-4.36,9.06-5.86,17.28-14.63,22.49-24.23,2.72-4.96,5.29-12.14,3.25-16.98-.9-2.13-2.74-3.32-4.96-4.38,0,0,.9.33.9.33-.13-.04-.37-.07-.75,0-.37.07-.83.28-1.2.56-.37.27-.63.6-.73.8-.1.21-.08.22-.08.27,1.93,6.29,14.41,11.71,22.99,9.54,6.98-2.21,11.58-8.75,16.75-14.6,2.58-2.93,5.63-6.23,7.55-9.52.44-.73.81-1.44,1.05-2.02.26-.55.34-1.09.29-.77v.2s0,.14,0,.14c.16,2.68,3.1,5.45,6.14,5.34,2,.04,3.72-.87,4.73-2.15.71-.9.89-1.66.98-2.16.1-1.03-.09-1.1,0-.94.09.19.33.63.73,1.13.79,1.01,2.08,2.19,3.52,3.29l-1.15-.73c9.04,4.47,18.5,10.33,16.35,22.03-.82,4.65-2.82,8.56-4.69,12.59-1.72,3.92-3.6,8.36-4.65,12.3-.85,2.76-1.32,5.84-1.13,8.39.11,1,.37,1.49.45,1.57,1.68,1.22,5.09.76,7.33.49,6.37-.87,9.67-5.32,13.15-10.86,2.2-3.62,4.7-8.17,7.02-12.14,9.15-16.4,31.19-41.33,51.87-40.91,2.83.1,5.85.77,8.59,2.08,7.6,3.77,4.48,15.04-3.82,14.57-20.37-.92-37.68,21.04-42.08,39.32-1.72,10.5,8.51,13.79,16.4,8.16,5.02-3.34,8.95-7.67,12.58-12.58,8.58-11.77,14.16-25.36,20.73-38.74,4.85-8.9,17.68-2.45,13.66,6.66-4.5,9.45-8.68,19.52-10.56,29.63-.78,4.04-1.1,8.95.16,12.36.42.95.62,1.28,1.36,1.63.51.23,1.93.33,3.69-.16,4.03-1.12,8.04-3.84,11.37-6.75,11.43-10.17,18.93-24.34,23.26-39.09,0,0-.3,2.02-.3,2.02-.02,6.03,6.96,9.54,11.76,6.1,1.15-.88,1.07-.92,1.55-1.5.19-.27.17-.25.16-.23-.04.07-.16.3-.27.52l-.37.76-.46.98c-1.66,3.5-2.94,7.13-4.07,10.88-2.13,7.35-3.78,14.97-3.39,22.42.26,2.79.57,4.92,1.93,6.41.19.18.36.25.75.38,5.27.91,10.68-3.68,14.96-7.91,10.91-11.55,18.44-26.3,24.82-40.99,3.62-8.13,15.44-4.66,14.34,3.95-2.06,13.41-5.89,26.02-8.9,39.07-.97,4.17-1.87,8.32-2.51,12.33l-14.33-4.07c3.62-8.7,7.59-17.56,12.28-26.08,9.19-16.22,21.49-35,41.09-39.94,8.89-2.32,19.16-.23,23.71,8.91,3.22,6.52,2.63,13.45.3,19.73,0,0,.25-.79.25-.79-1.23,4.58-3.01,8.38-4.69,11.93-3.29,7.53-9.89,17.2-4.57,24.38,0,0-1.25-1.33-1.25-1.33,7.28,6.39,21.54-10.64,25.81-16.33,6.37-8.21,12.69-16.89,17.88-25.65,2.6-4.53,5.57-9.75,6.22-14.4.03-.37-.07-.48.13.12.11.24.34.68.66.99.34.33.64.56.9.65,0,0,3.58.71,3.58.71,2.79-.01,5.87-2.63,6.11-5.38.08-.8,0-.76.02-.73,0,.05.06.22.09.29.01.04.03.06,0,0-.04-.06-.09-.18-.39-.54l.62.85c3.1,4.69,8.01,6.95,12.97,11.19,9.18,7.58,8.73,17.86,5.77,25.22-1.15,4.32-2,8.74-2.36,12.99-.23,3.39-.36,7.76.84,10.41.19.37.31.47.19.35-.1-.12-.46-.23-.44-.22,2.81-.35,5.37-2.01,8.08-3.81,9.23-6.33,15.88-14.9,22.47-24.62,5.28-7.81,10.27-16.23,16.25-24.49,2.44-3.37,7.15-4.12,10.52-1.68,3.21,2.33,4.05,6.72,2,10.04-5.7,9.34-10.98,18.71-13.34,29.12-.69,3.2-.97,6.33-.67,9.1l-.14-.86c1.62,6.75,4.23,11.64,12.08,8.34,7.6-3.13,14.73-10.46,18.91-17.7,5.12-7.74,11.83-17.03,9.87-26.36-.64-2.2-1.5-4.08-3.47-5.5-2.25-1.76-6.98-2.98-9.26-1.66,0,.02-.05.13-.06.4-.01.13,0,.31.01.5.02.04-.02-.01.01.1l.09.39c2.47,10.88,13.95,14,24.7,13.5,10.25-.63,20.19-3.69,27.86-10.7,6.2-5.31,12.52-10.93,20.01-15.07,3.97-2.19,8.49-4.02,13.47-4.84l-1.22.3c2.72-.75,4.01-.76,6.31-.64,3.55.3,6.46.89,9.81,2.15,9.81,3.61,6.73,16.88-3.84,15.58-15.81-2.81-28.74,10.69-36.78,23-3.13,4.93-10.49,21.46-3.05,24.43,3.47,1.17,8.82-.15,12.46-2.11,9.83-4.98,17.34-14.56,21.98-24.66,4.05-7.38,7.52-15.72,10.58-23.71,1.47-3.94,5.88-5.93,9.81-4.43,3.63,1.39,5.58,5.26,4.65,8.94-.4,1.6-.8,2.82-1.2,4.06-.78,2.47-2.71,7.94-3.51,10.42-2.6,8.34-5.63,17.63-5.57,26.01.03,1.85.31,3.52.71,4.49.35.76.45.98,1.04,1.33,0,0-3.32-.78-3.32-.78,3.77.02,7.28-.92,10.66-2.81,3.38-1.88,6.6-4.69,9.6-8.01,9.36-10.41,16.66-24.81,26.01-36.35,12.9-16.43,29.47-22.49,48.91-12.19,3.77,1.93,5.25,6.56,3.32,10.33-1.63,3.17-5.17,4.73-8.49,3.98-10.6-2.2-20.52-1.76-27.33,6.2-9.49,10.3-26.75,30.42-12.73,43.1,0,0-1.95-1.33-1.95-1.33.74.33,1.5.55,2.48.57,9.78-.32,20.41-10.83,27.37-17.78,23.17-24.91,45.65-61.37,55.14-94.09.87-3.36,1.53-6.73,1.75-9.79.23-1.96.05-5.14-.67-6.42,0,0,1.32,1.62,1.32,1.62-1.02-.91-2.22-1.89-3.49-1.82-1.53.28-2.7,1.18-4.27,2.71-7.06,7.59-10.9,18.13-14.37,27.98-2.84,8.55-5.07,17.41-6.83,26.36-3.33,17.57-5.43,36.17-3.7,53.83.46,4.29,1.22,8.5,2.44,12.13.6,1.81,1.35,3.43,2.13,4.7.8,1.25,1.61,2.06,2.18,2.35,6.66,2.71,20.67-13.08,24.48-17.58,2.9-3.42,5.7-7,8.42-10.67,2.63-3.55,7.64-4.3,11.19-1.67,3.56,2.63,4.3,7.65,1.66,11.2-5.96,7.93-12.09,15.55-19.46,22.42-6.15,5.5-13.45,11.45-22.71,12.48-7.74,1.02-15.38-3.55-19.21-10.07-8.85-15.13-7.99-36.63-6.92-53.3,2.09-26.06,11.79-77.81,33.21-94.33,4.45-3.45,11-5.25,16.62-3.58,4.26,1.29,7.95,3.58,10.56,6.94,8.21,13.79-1.8,37.75-7.28,51-13.35,30.63-49.04,90.13-82.29,99.9-5.75,1.52-13.33,1.47-18.36-2.49-8.36-7.46-11.99-19.02-9.4-29.9,2.17-9.61,7.12-17.61,12.86-25.08,4.45-5.45,8.69-10.8,14.26-15.13,10.32-7.74,24.25-8.14,36.14-5.49,0,0-5.17,14.31-5.17,14.31-3.78-1.95-7.6-3.24-11.04-3.34-26.73-.4-36.06,64.76-77.11,64.31-5.43-.28-9.94-5.46-11.79-10.12-5.62-14.93,3.41-36.81,8.08-51.29.35-1.08.7-2.19.89-2.95l14.46,4.51c-3.46,8.85-6.89,17.28-11.57,25.75-1.5,3.48-6.89,12.69-11.25,17.24-29.46,33.38-71.57,16.67-47.5-28.09,10.8-18.39,30.49-36.45,53.61-32.13,0,0-1.86-.1-1.86-.1-.06,0-.09,0-.37.05-5.91,1.13-7.9,9.31-2.76,13.02.2.13.27.18.36.23.28.16.23.12.16.09-1.42-.52-3.63-1-5.16-1.09-.34-.02-.65-.03-.81-.02-.15,0-.21.06.35-.11l-1.22.3c-11.51,1.84-21.61,13.58-31.33,20.65-13.26,8.73-29.7,12.07-45.33,9.12-9.59-1.83-19.41-7.74-23.88-17-3.67-7.1-4.9-16.28,1.25-22.48,10.16-9.69,28.01-4.69,34.93,6.4,9.6,15.5.39,33.26-8.88,46.21,0,0,.31-.49.31-.49-3.02,5.15-6.7,9.66-10.96,13.67-12.74,12.39-33.88,19.36-44.23,0-9.93-18.11,3.35-42.15,12.82-57.65,0,0,12.49,8.4,12.49,8.4-12.84,17.84-23.14,39.66-42.45,52.7-9.66,6.96-23.13,10.79-29.83-2.2-2.71-5.78-2.76-12.22-2.3-18.23.54-6.84,2.12-13.37,4.06-19.72.53-2.77-.17-4-2.32-5.86-1.82-1.58-4.57-3.36-7.46-5.62-2.89-2.25-6.02-5.17-8.38-8.91l.62.85c-.67-.8-1.02-1.4-1.33-1.97-2.66-4.75-3.13-12.31,2.66-15.43,5.21-2.93,11.11.98,13.09,5.92,1.63,4.3,1.06,7.4.24,11.09-1.59,5.99-4.64,11.61-7.51,16.57-6.36,10.7-13.46,20.26-21.03,29.87-5.26,6.54-11.27,12.74-18.67,17.08-5.01,2.93-11.72,4.88-17.73,3.41-4-1-7.61-2.87-10.11-5.79-6.65-8.75-5.74-19.77-1.83-28.92,2.88-7.22,7.07-13.92,8.94-20.85,1-2.72,1.84-7.29-.92-8.79-.72-.44-3.06-.36-4.46-.09-21.02,4.27-36.27,38.97-44.12,57.45-3.5,8.03-15.56,4.77-14.34-4.06,2.2-13.28,6.02-25.94,8.98-38.92.96-4.16,1.83-8.3,2.4-12.25l14.34,3.95c-4.6,10.82-9.9,21.27-16.5,31.28-7.13,10.43-15.71,21.37-28.34,25.8-8.94,3.03-19.45.39-23.72-8.68-6.63-13.98-.43-36.15,5.1-49.67.4-.94.99-2.16,1.41-3.09.69-1.4,1.03-2.24,2.02-3.63,2.2-3.21,7.23-4.58,10.92-1.73,2.71,2.24,3.52,5.12,2.71,8.25-6,20.24-17.27,40.4-35.62,52.07-6.37,3.86-14.82,6.81-22.5,3.93-18.68-7.95-11.44-33.93-6.23-48.28,2.05-5.54,4.38-10.88,6.88-16.1l13.66,6.66c-10.55,21.16-19.15,45.34-40.73,58.66-8.89,5.3-21.63,5.59-29.96-1.74-6.95-5.83-9.43-15.6-7.48-24.24,4.7-18.17,15.82-34.15,31.91-44.14,7.67-4.65,16.86-7.34,26.01-6.75,0,0-3.82,14.57-3.82,14.57-4.75-1.79-9.7,1.09-14.15,3.74-10.13,6.71-19.29,16.94-25.59,27.58-7.33,12.49-13.89,28.51-30.15,31.61-6.59,1.24-13.64,1.5-19.77-2.38-12.9-9.09-6.61-27.17-1.65-38.89,1.3-3.15,3.29-6.82,4.31-9.9.44-1.29.54-2.36.49-2.34-.01-.01.04.18.06.2.02.03-.08-.14-.38-.42-2.18-2-5.25-3.29-7.99-4.82-2.79-1.74-4.92-3.81-7.35-6.66-2.47-3.51-4.59-6.74-3.94-12.08.54-4.56,4.56-9.05,9.83-8.93,4.85-.11,8.79,4.35,9.07,8.65.7,8.7-6.82,17.1-12.06,23.03-8.41,10.26-18.54,21.73-33.56,21.07-11.4-.4-22.88-4.79-29.9-14.22-3.88-5.39-5.63-12.66-2.3-18.72,3.92-7.52,12.81-11.6,21.04-9.17,8.94,3.19,15.59,11.79,15.86,21.37,1.19,24.77-30.38,58.61-54.99,59.53-16.49.54-24.68-13.53-26.12-28.22-1.05-9.11-.36-17.64.33-26.52,2.95-33.39,19.29-123.67,61.66-125.31,10.24-.43,19.46,5.2,22.09,15.31,3.89,16.03-4.49,33.86-11.85,47.31-14.6,25.1-40.33,54.43-70.69,58.49-15.26,2.04-31.28-5.47-39.8-18.29-23.76-36.82,8.17-93.61,31.98-123.24,63.88-78.4,143.48-97.44,232.63-47.9,39.68,20.73,77.04,47.07,121.61,54.64,33.98,6.18,70.73-2.79,97.69-24.37,26.95-21.14,41.54-55.11,27.23-87.68-3.99-9.43-9.97-18.09-16.76-25.77-22.85-23.91-54.17-38.14-82.63-55.7-26.68-16.01-54.68-37.46-66.67-67.87-7.76-19.38-11.83-40.31-12.66-61.1C337.02,114.63,380.66,1.38,476.65,0c61.32-.9,96.79,64.03,85.1,119.44-2.15,11.21-6.77,21.82-12.27,31.73-7.07,13.16-15.75,25.7-24.32,37.74-8.05,11.18-20.59,29.24-28.7,40.69-19.22,27.58-39.16,55.66-63.86,78.93-16.55,16.19-34.8,32.11-41.97,54.51-7.69,24.67,9.28,37.28,32.56,36.46,35.54-2.41,67.21-30.48,71.22-66.17,1.68-13.94-1.33-28.5-9.88-39.59-19.13-24.12-53.11-24.75-81.74-19.95-11.39,1.7-23.98,5.6-35.13,8.87-12.42,3.53-24.9,6.5-37.74,8.51-39.46,6.68-84.89.94-113.91-29.24-24.86-25.51-28.9-64.55-6.73-93.22,17.01-22.32,44.05-33.81,70.75-38.82,68.3-11.49,136.88,8.08,200.4,31.63,31.49,12.04,62.06,26.1,91.96,41.32,8.72,5.44,17.03,11.59,25.04,18.32,19.81,16.93,39.15,40.11,38.57,68.14-.83,38.48-45.22,62.58-78.49,44.14-25.08-13.88-33.73-47.64-28.63-74.21,12.74-69.8,114.23-93.49,96.73-160.83,0,0,.21.72.21.72-2.05-6.2-5.31-12.09-9.49-17.29-4.19-5.2-9.31-9.69-14.97-13.18-9.21-5.69-19.84-8.54-30.55-7.69-16.92.67-32.7,6.88-47.33,16.36-25.22,16.56-45.51,40.28-64.87,63.7-15.01,18.22-29.67,37.37-46.03,54.81-17.61,18.43-39.51,38.16-66.82,38.56-3.56.01-7.18-.25-10.67-.93-5.23-.83-10.54-2.16-15.63-3.63-63.62-18.01-92.99-89.28-62.65-147.57,23.58-45.06,76.58-61.81,124-47.84,70.86,20.17,116.52,100.23,195.06,95.14,143.54-13.12,142.95,175.5.98,161.24-65.68-4.35-101.37,36.41-152.59,68.3-50.74,31.29-96.27,20.2-142.66-12.13-10.53-7.84.02-23.61,11.4-16.43h0Z"/>
    <circle cx="323.78" cy="619.29" r="11.51"/>
  </g>
</svg>