<svg xmlns="http://www.w3.org/2000/svg" version="1.1" xmlns:xlink="http://www.w3.org/1999/xlink" width="1000" height="1000"><style>
    #light-icon {
      display: inline;
    }
    #dark-icon {
      display: none;
    }

    @media (prefers-color-scheme: dark) {
      #light-icon {
        display: none;
      }
      #dark-icon {
        display: inline;
      }
    }
  </style><g id="light-icon"><svg xmlns="http://www.w3.org/2000/svg" version="1.1" xmlns:xlink="http://www.w3.org/1999/xlink" width="1000" height="1000"><g><g transform="matrix(1.60570345868525,0,0,1.60570345868525,0,65.21564597450146)"><svg xmlns="http://www.w3.org/2000/svg" version="1.1" xmlns:xlink="http://www.w3.org/1999/xlink" width="622.78" height="541.55"><svg id="Layer_2" data-name="Layer 2" xmlns="http://www.w3.org/2000/svg" viewBox="0 0 622.78 541.55">
  <g id="Layer_1-2" data-name="Layer 1">
    <path d="M582.52,141.75c2.04-5.05,3.57-10.32,4.43-15.82,1.83-11.04.91-22.31-1.68-32.67-8.53-26.62-31.74-47.27-59.15-52.3-12.5-2.03-25.21-1.04-37.45,2.09C473.88,17.65,448.59-.47,416,0c-34.65.49-62.47,15.57-83.71,38.51-3.97-1.55-8-2.94-12.13-4.11-47.43-13.97-100.43,2.78-124,47.84-9.83,18.89-13.39,39.14-11.55,58.5-13.91,6.46-26.5,15.54-35.98,27.97-22.18,28.67-18.13,67.71,6.73,93.22,29.02,30.18,74.45,35.92,113.91,29.24,12.84-2,25.31-4.97,37.73-8.5,8.87,11.38,19.93,21.18,31.63,29.71-12.44,13.19-23.61,27.85-28.59,44.98-27.49,2.19-54.39-10.48-77.69-26.83-11.38-7.18-21.93,8.59-11.4,16.43,28.7,19.99,57.06,31.85,86.53,30.6,1.75,28.74,27.7,43.97,55.76,42.73,30.2-1.76,58.13-18.1,75.07-42.3,1.29,1.24,2.56,2.51,3.8,3.81,6.79,7.68,12.77,16.34,16.76,25.77,14.31,32.57-.28,66.54-27.23,87.68-26.97,21.57-63.71,30.55-97.69,24.37-44.57-7.57-81.93-33.91-121.61-54.64-78.77-43.77-150.09-33.99-209.69,22.96-3.33,3.18-3.55,8.41-.46,11.82.05.05.1.1.14.16,3.12,3.44,8.44,3.7,11.89.59,22.42-20.27,48.93-35.44,75.71-40.92,77.52-15.59,134.99,43.43,202.78,69.28,32.52,12.86,70.14,17.42,104.1,6.74,42.88-12.58,83.62-47.85,87.58-94.64,2.07-23.4-6.67-46.57-20.81-64.9-4.65-5.97-9.78-11.39-15.25-16.4,3.08-7.54,5.2-15.54,6.14-23.88,1.49-11.29.41-22.66-2.97-33.21,5.84-2.63,11.85-4.92,18.11-6.77,4.17,15.64,13.09,29.81,27.25,37.65,33.28,18.44,77.67-5.66,78.49-44.14.04-2.13-.04-4.23-.22-6.3,60.83-26.82,63.54-109.28,7.38-141.25ZM510.15,60.96c10.71-.85,21.34,2,30.55,7.69,5.67,3.49,10.79,7.98,14.97,13.18,4.11,5.11,7.33,10.89,9.38,16.98,3.29,12.99,2.14,24.35-1.93,34.74-13.63-4.05-29.59-5.67-47.9-3.99-5.73.37-11.28.28-16.68-.2,1.04-3.25,1.91-6.54,2.55-9.9,3.98-18.87,2.49-38.84-3.62-56.94,4.15-.85,8.38-1.38,12.68-1.55ZM488.83,151.18c.4-.72.79-1.44,1.18-2.16.3.04.59.09.89.13,8.47,1.12,17.06,1.44,25.55.9,3.09-.26,8.35-.49,11.33-.58,8.24-.2,16.64.59,24.69,2.5-12.44,16.41-30.92,31.08-47.53,47.44-11.81-5.92-23.72-11.64-35.75-17.13,7-10,13.86-20.35,19.65-31.11ZM478,68.95c6.11,18.27,6.3,38.79.1,56.62-16.55-4.66-31.78-12.79-46.47-22.43,9.66-9.59,19.93-18.42,31.2-25.82,4.93-3.19,9.99-6.01,15.17-8.37ZM469.07,144.39c-5.7,10.19-12.31,19.81-19.13,29.4-9.97-4.27-20.01-8.38-30.16-12.26-9.86-3.65-19.84-7.21-29.92-10.57,2.7-3.33,5.39-6.65,8.1-9.94,6.3-7.62,12.7-15.27,19.34-22.69,16.23,10.87,33.22,20.35,51.78,26.07ZM373.33,31.71c15.38-8.77,33.31-12.41,50.91-10.85,11.44,1.46,22.31,6.18,31.15,13.67,5.27,4.48,9.8,9.75,13.57,15.55-6.11,2.79-11.99,6.06-17.5,9.67-13.78,9.04-25.99,19.68-37.32,31.2-20.36-14.85-40.3-31.09-62.08-43.09,6.5-6.28,13.59-11.74,21.27-16.16ZM338.04,63.83c8.91,4.55,17.5,9.95,25.75,15.75,12.06,8.43,24.01,17.66,36.23,26.59-10.86,12.34-21.12,25.27-31.46,38.06-20.06-5.96-40.47-10.89-61.06-14.02,6.22-24.41,16.46-47.57,30.53-66.38ZM214.54,91.95c12.86-25.26,40.19-40.64,68.16-41.52,12.45-.63,24.42,1.4,35.91,5.2-14.66,21.11-25.08,46.32-31.38,72.12-22.52-2.03-45.2-1.66-67.85,2.15-4.8.9-9.62,2.02-14.39,3.36-.37-13.76,2.65-27.93,9.54-41.32ZM280.16,197.12c.21,5.4.65,10.81,1.31,16.2-.74-.06-1.49-.15-2.24-.26-4.83-.77-9.74-1.9-14.43-3.26-29.01-8.16-49.03-29.85-56.55-55.64,5-1.53,10.05-2.73,14.99-3.62,19.29-3.23,39.37-3.65,59.78-1.98-2.64,16.64-3.59,33.13-2.88,48.55ZM242.58,272.64c-15.3.41-30.62-1.76-44.73-7.36-26.55-10.04-48.6-35.84-41.42-65.41,4.43-17.34,17.12-29.61,32.5-37.8,9.89,31.42,34.62,57.76,69.87,67.74,5.08,1.47,10.4,2.8,15.63,3.63,3.49.68,7.11.94,10.67.93.05,0,.11,0,.16,0,1.95,8.13,4.45,16.12,7.55,23.86.79,2,1.65,3.96,2.58,5.89-17.32,4.63-35.33,8.1-52.81,8.52ZM301.61,209.42c-2.1-18.71-1.53-38.74,1.63-58.54,16.94,2.46,33.99,6.21,50.9,10.86-10.55,12.47-21.52,24.46-33.61,35.21-5.59,4.69-11.44,8.82-17.46,11.78-.49.24-.97.47-1.46.69ZM315.36,258.42c-1.78-3.31-3.36-6.78-4.7-10.43-2.13-5.54-3.91-11.39-5.38-17.47,18.2-6.69,33.6-21.04,46.64-34.69,8.32-8.87,16.21-18.19,23.92-27.6,21.12,6.77,41.83,14.73,61.58,23.13-1.4,2-2.8,4.01-4.18,6.05-13.15,18.42-25.93,37.49-39.79,55.61-17.94-3.83-36.91-2.87-54.85.15-7.64,1.25-15.51,3.14-23.24,5.26ZM400.92,276.96c8.77,3.49,16.67,8.87,22.95,16.79.04.06.08.12.12.17-11.36,6.54-22.2,13.94-32.54,21.51-1.54,1.1-3.08,2.21-4.61,3.31-5.34-3.08-10.63-6.17-15.79-9.35.3-.29.59-.58.89-.86,10.4-9.8,19.96-20.46,28.98-31.58ZM328.43,276.63c4.65-1.16,9.27-2.16,13.71-2.83,11.6-1.94,24.08-3,36.1-1.96-6.55,7.62-13.4,14.94-20.69,21.81-1.43,1.38-2.88,2.76-4.34,4.17-9.03-6.33-17.53-13.25-24.77-21.19ZM356.12,324.05c1.12.69,2.24,1.38,3.36,2.05,3.08,1.9,6.19,3.76,9.33,5.6-10.7,7.44-21.6,14.23-33.64,19.26,5.39-9.96,12.88-18.66,20.95-26.9ZM362.54,399.51c-19.34.68-34.31-7.92-34.42-24.98,11.59-2.93,23.39-7.97,35.49-15.43,8.49-5.28,16.54-10.81,24.39-16.33,11.82,6.81,23.5,13.78,34.28,21.77-13.09,19.77-35.51,33.34-59.74,34.98ZM433.75,333.34c-.48,4.3-1.37,8.48-2.62,12.52-8.04-5.73-16.47-10.95-25-15.98,8.8-6.2,17.53-12.15,26.51-17.45,1.62,6.78,1.96,13.92,1.11,20.91ZM468.23,259.23c-1,5.21-1.46,10.69-1.39,16.25-8.28,2.27-16.33,5.27-24.14,8.81-6.05-9.04-14.21-16.71-24.26-22.11-1.43-.79-2.87-1.52-4.33-2.22,7.46-10.01,14.62-20.21,21.69-30.35,5.81-8.19,13.87-19.77,20.94-29.79,11.56,5.21,22.7,10.48,33.31,15.66-10.5,12.74-18.75,26.9-21.83,43.75ZM508.58,225.94c15.18,10.68,33.39,26.29,41.5,43.67-6.93,1.37-14.09,1.89-21.17,1.58-3.67-.08-7.02-.42-11.44-.72-9.88-.62-19.83-.34-29.67.9.81-17.17,9.54-32.38,20.78-45.43ZM552.24,298.94c-5.18,13.29-21.31,21.73-35.29,19.49-14.34-1.94-22.89-13.66-26.75-26.95,8.16-1.02,16.78-1.29,26-.68,14.07,1.41,26.75.83,38.05-1.35-.2,3.15-.84,6.33-2.01,9.5ZM569.95,262.83c-7.04-16.38-20-30.4-33.17-41.66-4.38-3.68-8.86-7.18-13.43-10.49,10.61-10.17,21.87-19.85,32.31-30.54,6.09-6.18,11.99-12.96,17.03-20.33,7.5,4.28,14.11,9.99,19.2,17.31,11.73,16.42,13.72,39.09,5.38,57.42-5.63,12.9-15.47,22.24-27.32,28.28Z"></path>
  </g>
</svg></svg></g></g></svg></g><g id="dark-icon"><svg xmlns="http://www.w3.org/2000/svg" version="1.1" xmlns:xlink="http://www.w3.org/1999/xlink" width="1000" height="1000"><g><g transform="matrix(1.60570345868525,0,0,1.60570345868525,0,65.21564597450146)"><svg xmlns="http://www.w3.org/2000/svg" version="1.1" xmlns:xlink="http://www.w3.org/1999/xlink" width="622.78" height="541.55"><svg id="Layer_2" data-name="Layer 2" xmlns="http://www.w3.org/2000/svg" viewBox="0 0 622.78 541.55">
  <defs>
    <style>
      .cls-1 {
        fill: #fff;
      }
    </style>
  </defs>
  <g id="Layer_1-2" data-name="Layer 1">
    <path class="cls-1" d="M582.52,141.75c2.04-5.05,3.57-10.32,4.43-15.82,1.83-11.04.91-22.31-1.68-32.67-8.53-26.62-31.74-47.27-59.15-52.3-12.5-2.03-25.21-1.04-37.45,2.09C473.88,17.65,448.59-.47,416,0c-34.65.49-62.47,15.57-83.71,38.51-3.97-1.55-8-2.94-12.13-4.11-47.43-13.97-100.43,2.78-124,47.84-9.83,18.89-13.39,39.14-11.55,58.5-13.91,6.46-26.5,15.54-35.98,27.97-22.18,28.67-18.13,67.71,6.73,93.22,29.02,30.18,74.45,35.92,113.91,29.24,12.84-2,25.31-4.97,37.73-8.5,8.87,11.38,19.93,21.18,31.63,29.71-12.44,13.19-23.61,27.85-28.59,44.98-27.49,2.19-54.39-10.48-77.69-26.83-11.38-7.18-21.93,8.59-11.4,16.43,28.7,19.99,57.06,31.85,86.53,30.6,1.75,28.74,27.7,43.97,55.76,42.73,30.2-1.76,58.13-18.1,75.07-42.3,1.29,1.24,2.56,2.51,3.8,3.81,6.79,7.68,12.77,16.34,16.76,25.77,14.31,32.57-.28,66.54-27.23,87.68-26.97,21.57-63.71,30.55-97.69,24.37-44.57-7.57-81.93-33.91-121.61-54.64-78.77-43.77-150.09-33.99-209.69,22.96-3.33,3.18-3.55,8.41-.46,11.82.05.05.1.1.14.16,3.12,3.44,8.44,3.7,11.89.59,22.42-20.27,48.93-35.44,75.71-40.92,77.52-15.59,134.99,43.43,202.78,69.28,32.52,12.86,70.14,17.42,104.1,6.74,42.88-12.58,83.62-47.85,87.58-94.64,2.07-23.4-6.67-46.57-20.81-64.9-4.65-5.97-9.78-11.39-15.25-16.4,3.08-7.54,5.2-15.54,6.14-23.88,1.49-11.29.41-22.66-2.97-33.21,5.84-2.63,11.85-4.92,18.11-6.77,4.17,15.64,13.09,29.81,27.25,37.65,33.28,18.44,77.67-5.66,78.49-44.14.04-2.13-.04-4.23-.22-6.3,60.83-26.82,63.54-109.28,7.38-141.25ZM510.15,60.96c10.71-.85,21.34,2,30.55,7.69,5.67,3.49,10.79,7.98,14.97,13.18,4.11,5.11,7.33,10.89,9.38,16.98,3.29,12.99,2.14,24.35-1.93,34.74-13.63-4.05-29.59-5.67-47.9-3.99-5.73.37-11.28.28-16.68-.2,1.04-3.25,1.91-6.54,2.55-9.9,3.98-18.87,2.49-38.84-3.62-56.94,4.15-.85,8.38-1.38,12.68-1.55ZM488.83,151.18c.4-.72.79-1.44,1.18-2.16.3.04.59.09.89.13,8.47,1.12,17.06,1.44,25.55.9,3.09-.26,8.35-.49,11.33-.58,8.24-.2,16.64.59,24.69,2.5-12.44,16.41-30.92,31.08-47.53,47.44-11.81-5.92-23.72-11.64-35.75-17.13,7-10,13.86-20.35,19.65-31.11ZM478,68.95c6.11,18.27,6.3,38.79.1,56.62-16.55-4.66-31.78-12.79-46.47-22.43,9.66-9.59,19.93-18.42,31.2-25.82,4.93-3.19,9.99-6.01,15.17-8.37ZM469.07,144.39c-5.7,10.19-12.31,19.81-19.13,29.4-9.97-4.27-20.01-8.38-30.16-12.26-9.86-3.65-19.84-7.21-29.92-10.57,2.7-3.33,5.39-6.65,8.1-9.94,6.3-7.62,12.7-15.27,19.34-22.69,16.23,10.87,33.22,20.35,51.78,26.07ZM373.33,31.71c15.38-8.77,33.31-12.41,50.91-10.85,11.44,1.46,22.31,6.18,31.15,13.67,5.27,4.48,9.8,9.75,13.57,15.55-6.11,2.79-11.99,6.06-17.5,9.67-13.78,9.04-25.99,19.68-37.32,31.2-20.36-14.85-40.3-31.09-62.08-43.09,6.5-6.28,13.59-11.74,21.27-16.16ZM338.04,63.83c8.91,4.55,17.5,9.95,25.75,15.75,12.06,8.43,24.01,17.66,36.23,26.59-10.86,12.34-21.12,25.27-31.46,38.06-20.06-5.96-40.47-10.89-61.06-14.02,6.22-24.41,16.46-47.57,30.53-66.38ZM214.54,91.95c12.86-25.26,40.19-40.64,68.16-41.52,12.45-.63,24.42,1.4,35.91,5.2-14.66,21.11-25.08,46.32-31.38,72.12-22.52-2.03-45.2-1.66-67.85,2.15-4.8.9-9.62,2.02-14.39,3.36-.37-13.76,2.65-27.93,9.54-41.32ZM280.16,197.12c.21,5.4.65,10.81,1.31,16.2-.74-.06-1.49-.15-2.24-.26-4.83-.77-9.74-1.9-14.43-3.26-29.01-8.16-49.03-29.85-56.55-55.64,5-1.53,10.05-2.73,14.99-3.62,19.29-3.23,39.37-3.65,59.78-1.98-2.64,16.64-3.59,33.13-2.88,48.55ZM242.58,272.64c-15.3.41-30.62-1.76-44.73-7.36-26.55-10.04-48.6-35.84-41.42-65.41,4.43-17.34,17.12-29.61,32.5-37.8,9.89,31.42,34.62,57.76,69.87,67.74,5.08,1.47,10.4,2.8,15.63,3.63,3.49.68,7.11.94,10.67.93.05,0,.11,0,.16,0,1.95,8.13,4.45,16.12,7.55,23.86.79,2,1.65,3.96,2.58,5.89-17.32,4.63-35.33,8.1-52.81,8.52ZM301.61,209.42c-2.1-18.71-1.53-38.74,1.63-58.54,16.94,2.46,33.99,6.21,50.9,10.86-10.55,12.47-21.52,24.46-33.61,35.21-5.59,4.69-11.44,8.82-17.46,11.78-.49.24-.97.47-1.46.69ZM315.36,258.42c-1.78-3.31-3.36-6.78-4.7-10.43-2.13-5.54-3.91-11.39-5.38-17.47,18.2-6.69,33.6-21.04,46.64-34.69,8.32-8.87,16.21-18.19,23.92-27.6,21.12,6.77,41.83,14.73,61.58,23.13-1.4,2-2.8,4.01-4.18,6.05-13.15,18.42-25.93,37.49-39.79,55.61-17.94-3.83-36.91-2.87-54.85.15-7.64,1.25-15.51,3.14-23.24,5.26ZM400.92,276.96c8.77,3.49,16.67,8.87,22.95,16.79.04.06.08.12.12.17-11.36,6.54-22.2,13.94-32.54,21.51-1.54,1.1-3.08,2.21-4.61,3.31-5.34-3.08-10.63-6.17-15.79-9.35.3-.29.59-.58.89-.86,10.4-9.8,19.96-20.46,28.98-31.58ZM328.43,276.63c4.65-1.16,9.27-2.16,13.71-2.83,11.6-1.94,24.08-3,36.1-1.96-6.55,7.62-13.4,14.94-20.69,21.81-1.43,1.38-2.88,2.76-4.34,4.17-9.03-6.33-17.53-13.25-24.77-21.19ZM356.12,324.05c1.12.69,2.24,1.38,3.36,2.05,3.08,1.9,6.19,3.76,9.33,5.6-10.7,7.44-21.6,14.23-33.64,19.26,5.39-9.96,12.88-18.66,20.95-26.9ZM362.54,399.51c-19.34.68-34.31-7.92-34.42-24.98,11.59-2.93,23.39-7.97,35.49-15.43,8.49-5.28,16.54-10.81,24.39-16.33,11.82,6.81,23.5,13.78,34.28,21.77-13.09,19.77-35.51,33.34-59.74,34.98ZM433.75,333.34c-.48,4.3-1.37,8.48-2.62,12.52-8.04-5.73-16.47-10.95-25-15.98,8.8-6.2,17.53-12.15,26.51-17.45,1.62,6.78,1.96,13.92,1.11,20.91ZM468.23,259.23c-1,5.21-1.46,10.69-1.39,16.25-8.28,2.27-16.33,5.27-24.14,8.81-6.05-9.04-14.21-16.71-24.26-22.11-1.43-.79-2.87-1.52-4.33-2.22,7.46-10.01,14.62-20.21,21.69-30.35,5.81-8.19,13.87-19.77,20.94-29.79,11.56,5.21,22.7,10.48,33.31,15.66-10.5,12.74-18.75,26.9-21.83,43.75ZM508.58,225.94c15.18,10.68,33.39,26.29,41.5,43.67-6.93,1.37-14.09,1.89-21.17,1.58-3.67-.08-7.02-.42-11.44-.72-9.88-.62-19.83-.34-29.67.9.81-17.17,9.54-32.38,20.78-45.43ZM552.24,298.94c-5.18,13.29-21.31,21.73-35.29,19.49-14.34-1.94-22.89-13.66-26.75-26.95,8.16-1.02,16.78-1.29,26-.68,14.07,1.41,26.75.83,38.05-1.35-.2,3.15-.84,6.33-2.01,9.5ZM569.95,262.83c-7.04-16.38-20-30.4-33.17-41.66-4.38-3.68-8.86-7.18-13.43-10.49,10.61-10.17,21.87-19.85,32.31-30.54,6.09-6.18,11.99-12.96,17.03-20.33,7.5,4.28,14.11,9.99,19.2,17.31,11.73,16.42,13.72,39.09,5.38,57.42-5.63,12.9-15.47,22.24-27.32,28.28Z"></path>
  </g>
</svg></svg></g></g></svg></g></svg>